<?xml version="1.0" encoding="UTF-8" standalone="no"?>
<svg width="24" height="24" class="tanuki-logo" viewBox="0 0 36 36"
    xmlns:dc="http://purl.org/dc/elements/1.1/"
   xmlns:cc="http://creativecommons.org/ns#"
   xmlns:rdf="http://www.w3.org/1999/02/22-rdf-syntax-ns#"
   xmlns:svg="http://www.w3.org/2000/svg"
   xmlns="http://www.w3.org/2000/svg">
  <path class="tanuki-shape tanuki-left-ear" fill="#01abc1" d="M2 14l9.38 9v-9l-4-12.28c-.205-.632-1.176-.632-1.38 0z"></path>
  <path class="tanuki-shape tanuki-right-ear" fill="#01abc1" d="M34 14l-9.38 9v-9l4-12.28c.205-.632 1.176-.632 1.38 0z"></path>
  <path class="tanuki-shape tanuki-nose" fill="#01abc1" d="M18,34.38 3,14 33,14 Z"></path>
  <path class="tanuki-shape tanuki-left-eye" fill="#26c5da" d="M18,34.38 11.38,14 2,14 6,25Z"></path>
  <path class="tanuki-shape tanuki-right-eye" fill="#26c5da" d="M18,34.38 24.62,14 34,14 30,25Z"></path>
  <path class="tanuki-shape tanuki-left-cheek" fill="#80deea" d="M2 14L.1 20.16c-.18.565 0 1.2.5 1.56l17.42 12.66z"></path>
  <path class="tanuki-shape tanuki-right-cheek" fill="#80deea" d="M34 14l1.9 6.16c.18.565 0 1.2-.5 1.56L18 34.38z"></path>
</svg>
