<?xml version="1.0" encoding="UTF-8" standalone="no"?>
<!-- Created with Inkscape (http://www.inkscape.org/) -->

<svg
   xmlns:dc="http://purl.org/dc/elements/1.1/"
   xmlns:cc="http://creativecommons.org/ns#"
   xmlns:rdf="http://www.w3.org/1999/02/22-rdf-syntax-ns#"
   xmlns:svg="http://www.w3.org/2000/svg"
   xmlns="http://www.w3.org/2000/svg"
   xmlns:sodipodi="http://sodipodi.sourceforge.net/DTD/sodipodi-0.dtd"
   xmlns:inkscape="http://www.inkscape.org/namespaces/inkscape"
   width="167mm"
   height="43mm"
   viewBox="0 0 167 43"
   version="1.1"
   id="svg3767"
   inkscape:version="0.92.5 (2060ec1f9f, 2020-04-08)"
   sodipodi:docname="tanuki_full.svg">
  <defs
     id="defs3761" />
  <sodipodi:namedview
     id="base"
     pagecolor="#ffffff"
     bordercolor="#666666"
     borderopacity="1.0"
     inkscape:pageopacity="0.0"
     inkscape:pageshadow="2"
     inkscape:zoom="0.98994949"
     inkscape:cx="242.2954"
     inkscape:cy="-104.53286"
     inkscape:document-units="mm"
     inkscape:current-layer="layer1"
     showgrid="false"
     inkscape:window-width="1314"
     inkscape:window-height="704"
     inkscape:window-x="52"
     inkscape:window-y="27"
     inkscape:window-maximized="1" />
  <metadata
     id="metadata3764">
    <rdf:RDF>
      <cc:Work
         rdf:about="">
        <dc:format>image/svg+xml</dc:format>
        <dc:type
           rdf:resource="http://purl.org/dc/dcmitype/StillImage" />
        <dc:title></dc:title>
      </cc:Work>
    </rdf:RDF>
  </metadata>
  <g
     inkscape:label="Layer 1"
     inkscape:groupmode="layer"
     id="layer1"
     transform="translate(0,-254)">
    <g
       id="g3858"
       transform="matrix(1.2715091,0,0,1.2715091,0.35522423,252.96905)">
      <path
         id="path3829"
         d="m 2,14 9.38,9 V 14 L 7.38,1.72 C 7.175,1.088 6.204,1.088 6,1.72 Z"
         class="tanuki-shape tanuki-left-ear"
         inkscape:connector-curvature="0"
         style="fill:#01abc1" />
      <path
         id="path3831"
         d="m 34,14 -9.38,9 v -9 l 4,-12.28 c 0.205,-0.632 1.176,-0.632 1.38,0 z"
         class="tanuki-shape tanuki-right-ear"
         inkscape:connector-curvature="0"
         style="fill:#01abc1" />
      <path
         id="path3833"
         d="M 18,34.38 3,14 h 30 z"
         class="tanuki-shape tanuki-nose"
         inkscape:connector-curvature="0"
         style="fill:#01abc1" />
      <path
         id="path3835"
         d="M 18,34.38 11.38,14 H 2 l 4,11 z"
         class="tanuki-shape tanuki-left-eye"
         inkscape:connector-curvature="0"
         style="fill:#26c5da" />
      <path
         id="path3837"
         d="M 18,34.38 24.62,14 H 34 l -4,11 z"
         class="tanuki-shape tanuki-right-eye"
         inkscape:connector-curvature="0"
         style="fill:#26c5da" />
      <path
         id="path3839"
         d="m 2,14 -1.9,6.16 c -0.18,0.565 0,1.2 0.5,1.56 l 17.42,12.66 z"
         class="tanuki-shape tanuki-left-cheek"
         inkscape:connector-curvature="0"
         style="fill:#80deea" />
      <path
         id="path3841"
         d="m 34,14 1.9,6.16 c 0.18,0.565 0,1.2 -0.5,1.56 L 18,34.38 Z"
         class="tanuki-shape tanuki-right-cheek"
         inkscape:connector-curvature="0"
         style="fill:#80deea" />
    </g>
    <g
       transform="matrix(0.56479197,0,0,0.56479197,53.735744,118.39511)"
       id="layer1-6"
       inkscape:label="Layer 1">
      <g
         id="text3723"
         style="font-style:normal;font-weight:normal;font-size:10.58333302px;line-height:1.25;font-family:sans-serif;letter-spacing:0px;word-spacing:0px;fill:#333333;fill-opacity:1;stroke:none;stroke-width:0.26458332"
         aria-label="Famiwiki">
        <path
           id="path3744"
           style="font-style:normal;font-variant:normal;font-weight:normal;font-stretch:normal;font-size:50.79999924px;font-family:ABeeZee;-inkscape-font-specification:ABeeZee;fill:#333333;stroke-width:0.26458332"
           d="M 0.03628483,260.68405 H 21.118285 v 4.1656 H 4.8622848 v 10.8712 H 18.425885 v 3.9624 H 4.8622848 v 16.5608 H 0.03628483 Z"
           inkscape:connector-curvature="0" />
        <path
           id="path3746"
           style="font-style:normal;font-variant:normal;font-weight:normal;font-stretch:normal;font-size:50.79999924px;font-family:ABeeZee;-inkscape-font-specification:ABeeZee;fill:#333333;stroke-width:0.26458332"
           d="m 22.388219,283.18845 q 0,-2.9464 0.9144,-5.4864 0.9144,-2.5908 2.54,-4.4704 1.6764,-1.8796 3.962399,-2.9464 2.3368,-1.0668 5.08,-1.0668 2.286,0 4.1148,0.8128 1.8796,0.762 3.2512,1.9304 v -2.1336 h 4.1656 v 20.0152 q 0,1.9304 0.9144,2.54 0.9652,0.5588 2.0828,0.5588 l -0.9652,3.556 q -4.8768,0 -5.8928,-3.9624 -0.6096,0.8128 -1.4224,1.6256 -0.762,0.762 -1.778,1.3716 -1.016,0.6096 -2.286,0.9652 -1.27,0.3556 -2.794,0.3556 -2.4892,0 -4.6736,-0.9652 -2.133599,-0.9652 -3.759199,-2.7432 -1.5748,-1.778 -2.54,-4.2672 -0.9144,-2.54 -0.9144,-5.6896 z m 12.903199,9.6012 q 1.9304,0 3.6576,-0.9144 1.7272,-0.9144 2.8956,-2.3876 v -14.1732 q -1.3716,-0.9652 -3.048,-1.524 -1.6256,-0.6096 -3.4544,-0.6096 -1.8288,0 -3.3528,0.7112 -1.524,0.7112 -2.6416,2.032 -1.066799,1.27 -1.676399,3.0988 -0.6096,1.8288 -0.6096,4.0132 0,2.1336 0.6096,3.9624 0.6096,1.778 1.727199,3.0988 1.1176,1.27 2.5908,1.9812 1.524,0.7112 3.302,0.7112 z"
           inkscape:connector-curvature="0" />
        <path
           id="path3748"
           style="font-style:normal;font-variant:normal;font-weight:normal;font-stretch:normal;font-size:50.79999924px;font-family:ABeeZee;-inkscape-font-specification:ABeeZee;fill:#333333;stroke-width:0.26458332"
           d="m 59.929353,274.24765 q 1.4224,-2.1336 3.556,-3.556 2.1844,-1.4732 5.0292,-1.4732 3.1496,0 5.1308,1.524 1.9812,1.4732 2.8448,4.064 1.5748,-2.3368 3.7084,-3.9624 2.1844,-1.6256 5.3848,-1.6256 2.1336,0 3.7084,0.7112 1.6256,0.7112 2.692399,2.032 1.0668,1.27 1.5748,3.0988 0.5588,1.778 0.5588,3.9624 v 17.2212 h -4.571999 v -16.8656 q 0,-2.7432 -1.27,-4.4196 -1.27,-1.7272 -3.5052,-1.7272 -1.1684,0 -2.2352,0.4572 -1.0668,0.4572 -2.032,1.27 -0.9652,0.762 -1.8288,1.8288 -0.8636,1.016 -1.5748,2.1336 v 17.3228 h -4.572 v -16.8656 q 0,-2.7432 -1.27,-4.4196 -1.27,-1.7272 -3.5052,-1.7272 -1.1176,0 -2.1844,0.4572 -1.0668,0.4064 -2.0828,1.1684 -0.9652,0.762 -1.8288,1.778 -0.8636,1.016 -1.5748,2.1336 v 17.4752 h -4.572 v -26.416 h 4.4196 z"
           inkscape:connector-curvature="0" />
        <path
           id="path3750"
           style="font-style:normal;font-variant:normal;font-weight:normal;font-stretch:normal;font-size:50.79999924px;font-family:ABeeZee;-inkscape-font-specification:ABeeZee;fill:#333333;stroke-width:0.26458332"
           d="m 106.5637,296.24405 h -4.572 v -26.416 h 4.572 z m -2.286,-30.9372 q -1.3208,0 -2.286,-0.9144 -0.9144,-0.9652 -0.9144,-2.286 0,-1.4732 0.8636,-2.3368 0.8636,-0.8636 2.3368,-0.8636 1.3208,0 2.2352,0.9652 0.9652,0.9144 0.9652,2.2352 0,1.4732 -0.8636,2.3368 -0.8636,0.8636 -2.3368,0.8636 z"
           inkscape:connector-curvature="0" />
        <path
           id="path3752"
           style="font-style:normal;font-variant:normal;font-weight:normal;font-stretch:normal;font-size:50.79999924px;font-family:ABeeZee;-inkscape-font-specification:ABeeZee;fill:#333333;stroke-width:0.26458332"
           d="m 146.848,269.57405 4.064,1.4732 -8.382,25.1968 h -5.0292 l -6.096,-19.6596 -6.1468,19.6596 h -5.0292 l -8.3312,-25.1968 4.2164,-1.4732 6.8072,21.4884 6.1976,-19.3548 h 4.9276 l 6.0452,19.3548 z"
           inkscape:connector-curvature="0" />
        <path
           id="path3754"
           style="font-style:normal;font-variant:normal;font-weight:normal;font-stretch:normal;font-size:50.79999924px;font-family:ABeeZee;-inkscape-font-specification:ABeeZee;fill:#333333;stroke-width:0.26458332"
           d="m 160.81795,296.24405 h -4.572 v -26.416 h 4.572 z m -2.286,-30.9372 q -1.3208,0 -2.286,-0.9144 -0.9144,-0.9652 -0.9144,-2.286 0,-1.4732 0.8636,-2.3368 0.8636,-0.8636 2.3368,-0.8636 1.3208,0 2.2352,0.9652 0.9652,0.9144 0.9652,2.2352 0,1.4732 -0.8636,2.3368 -0.8636,0.8636 -2.3368,0.8636 z"
           inkscape:connector-curvature="0" />
        <path
           id="path3756"
           style="font-style:normal;font-variant:normal;font-weight:normal;font-stretch:normal;font-size:50.79999924px;font-family:ABeeZee;-inkscape-font-specification:ABeeZee;fill:#333333;stroke-width:0.26458332"
           d="m 168.94586,258.65205 h 4.572 v 21.4884 l 11.938,-10.8204 2.6416,2.8956 -10.2108,9.0424 12.446,12.446 -3.1496,3.048 -13.6652,-14.0716 v 13.5636 h -4.572 z"
           inkscape:connector-curvature="0" />
        <path
           id="path3758"
           style="font-style:normal;font-variant:normal;font-weight:normal;font-stretch:normal;font-size:50.79999924px;font-family:ABeeZee;-inkscape-font-specification:ABeeZee;fill:#333333;stroke-width:0.26458332"
           d="m 199.47663,296.24405 h -4.572 v -26.416 h 4.572 z m -2.286,-30.9372 q -1.3208,0 -2.286,-0.9144 -0.9144,-0.9652 -0.9144,-2.286 0,-1.4732 0.8636,-2.3368 0.8636,-0.8636 2.3368,-0.8636 1.3208,0 2.2352,0.9652 0.9652,0.9144 0.9652,2.2352 0,1.4732 -0.8636,2.3368 -0.8636,0.8636 -2.3368,0.8636 z"
           inkscape:connector-curvature="0" />
      </g>
    </g>
  </g>
</svg>
