<?xml version="1.0" encoding="UTF-8" standalone="no"?>
<svg
   xmlns:dc="http://purl.org/dc/elements/1.1/"
   xmlns:cc="http://creativecommons.org/ns#"
   xmlns:rdf="http://www.w3.org/1999/02/22-rdf-syntax-ns#"
   xmlns:svg="http://www.w3.org/2000/svg"
   xmlns="http://www.w3.org/2000/svg"
   xmlns:sodipodi="http://sodipodi.sourceforge.net/DTD/sodipodi-0.dtd"
   xmlns:inkscape="http://www.inkscape.org/namespaces/inkscape"
   width="256"
   height="256"
   viewBox="0 0 67.733332 67.733335"
   version="1.1"
   id="svg8"
   inkscape:version="1.0.2 (e86c870879, 2021-01-15)"
   sodipodi:docname="logo.svg">
  <defs
     id="defs2">
    <inkscape:perspective
       sodipodi:type="inkscape:persp3d"
       inkscape:vp_x="0 : 33.866667 : 1"
       inkscape:vp_y="0 : 1000 : 0"
       inkscape:vp_z="67.733332 : 33.866667 : 1"
       inkscape:persp3d-origin="33.866666 : 22.577778 : 1"
       id="perspective1402" />
  </defs>
  <sodipodi:namedview
     id="base"
     pagecolor="#ffffff"
     bordercolor="#666666"
     borderopacity="1.0"
     inkscape:pageopacity="0.0"
     inkscape:pageshadow="2"
     inkscape:zoom="1.3959666"
     inkscape:cx="122.00107"
     inkscape:cy="111.05659"
     inkscape:document-units="px"
     inkscape:current-layer="layer1"
     inkscape:document-rotation="0"
     showgrid="false"
     units="px"
     inkscape:window-width="1366"
     inkscape:window-height="703"
     inkscape:window-x="0"
     inkscape:window-y="0"
     inkscape:window-maximized="1" />
  <metadata
     id="metadata5">
    <rdf:RDF>
      <cc:Work
         rdf:about="">
        <dc:format>image/svg+xml</dc:format>
        <dc:type
           rdf:resource="http://purl.org/dc/dcmitype/StillImage" />
        <dc:title></dc:title>
      </cc:Work>
    </rdf:RDF>
  </metadata>
  <g
     inkscape:label="Layer 1"
     inkscape:groupmode="layer"
     id="layer1">
    <path
       id="rect1446"
       style="fill:#66a7ff;fill-opacity:1;stroke-width:1.00157"
       d="M 23.173828,0.57226562 C 10.389941,0.57226563 0.09960937,10.862597 0.09960937,23.646484 V 233.12109 c 0,12.78389 10.29033163,23.07618 23.07421863,23.07618 H 232.69727 c 12.78388,0 23.07617,-10.29229 23.07617,-23.07618 V 23.646484 c 0,-12.783887 -10.29229,-23.07421838 -23.07617,-23.07421838 z M 40.554688,22.984375 H 210.86523 c 11.57205,0 20.88672,9.31663 20.88672,20.888672 V 215.55273 c 0,11.57205 -9.31467,20.88868 -20.88672,20.88868 H 40.554688 c -11.572042,0 -20.888672,-9.31663 -20.888672,-20.88868 V 43.873047 c 0,-11.572042 9.31663,-20.888672 20.888672,-20.888672 z"
       transform="scale(0.26458333)" />
    <path
       id="rect1448"
       style="fill:#3890ff;fill-opacity:1;stroke-width:1.00157"
       d="m 33.849609,11.544922 c -12.783882,0 -23.074218,10.290336 -23.074218,23.074219 V 224.2793 c 0,12.78388 10.290336,23.07617 23.074218,23.07617 H 221.35547 c 12.78388,0 23.07617,-10.29229 23.07617,-23.07617 V 34.619141 c 0,-12.783883 -10.29229,-23.074219 -23.07617,-23.074219 z m 6.705079,11.439453 H 210.86523 c 11.57205,0 20.88672,9.31663 20.88672,20.888672 V 215.55273 c 0,11.57205 -9.31467,20.88868 -20.88672,20.88868 H 40.554688 c -11.572042,0 -20.888672,-9.31663 -20.888672,-20.88868 V 43.873047 c 0,-11.572042 9.31663,-20.888672 20.888672,-20.888672 z"
       transform="scale(0.26458333)" />
  </g>
</svg>
