<?xml version="1.0" encoding="UTF-8" standalone="no"?>
<!-- Created with Inkscape (http://www.inkscape.org/) -->

<svg
   xmlns:dc="http://purl.org/dc/elements/1.1/"
   xmlns:cc="http://creativecommons.org/ns#"
   xmlns:rdf="http://www.w3.org/1999/02/22-rdf-syntax-ns#"
   xmlns:svg="http://www.w3.org/2000/svg"
   xmlns="http://www.w3.org/2000/svg"
   xmlns:sodipodi="http://sodipodi.sourceforge.net/DTD/sodipodi-0.dtd"
   xmlns:inkscape="http://www.inkscape.org/namespaces/inkscape"
   width="200mm"
   height="39mm"
   viewBox="0 0 199.99998 38.999999"
   version="1.1"
   id="svg8"
   inkscape:version="0.92.5 (2060ec1f9f, 2020-04-08)"
   sodipodi:docname="tanuki_name_premium.svg">
  <defs
     id="defs2" />
  <sodipodi:namedview
     id="base"
     pagecolor="#ffffff"
     bordercolor="#666666"
     borderopacity="1.0"
     inkscape:pageopacity="0.0"
     inkscape:pageshadow="2"
     inkscape:zoom="0.98994949"
     inkscape:cx="280.19341"
     inkscape:cy="101.51905"
     inkscape:document-units="mm"
     inkscape:current-layer="layer1"
     showgrid="false"
     units="mm"
     inkscape:window-width="1314"
     inkscape:window-height="704"
     inkscape:window-x="52"
     inkscape:window-y="27"
     inkscape:window-maximized="1" />
  <metadata
     id="metadata5">
    <rdf:RDF>
      <cc:Work
         rdf:about="">
        <dc:format>image/svg+xml</dc:format>
        <dc:type
           rdf:resource="http://purl.org/dc/dcmitype/StillImage" />
        <dc:title />
      </cc:Work>
    </rdf:RDF>
  </metadata>
  <g
     inkscape:label="Layer 1"
     inkscape:groupmode="layer"
     id="layer1"
     transform="translate(0,-257.99998)">
    <g
       aria-label="Famiwiki"
       style="font-style:normal;font-weight:normal;font-size:10.58333302px;line-height:1.25;font-family:sans-serif;letter-spacing:0px;word-spacing:0px;display:none;fill:#333333;fill-opacity:1;stroke:none;stroke-width:0.26458332"
       id="text3723">
      <path
         d="M 0.03628483,260.68405 H 21.118285 v 4.1656 H 4.8622848 v 10.8712 H 18.425885 v 3.9624 H 4.8622848 v 16.5608 H 0.03628483 Z"
         style="font-style:normal;font-variant:normal;font-weight:normal;font-stretch:normal;font-size:50.79999924px;font-family:ABeeZee;-inkscape-font-specification:ABeeZee;fill:#333333;stroke-width:0.26458332"
         id="path3744"
         inkscape:connector-curvature="0" />
      <path
         d="m 22.388219,283.18845 q 0,-2.9464 0.9144,-5.4864 0.9144,-2.5908 2.54,-4.4704 1.6764,-1.8796 3.962399,-2.9464 2.3368,-1.0668 5.08,-1.0668 2.286,0 4.1148,0.8128 1.8796,0.762 3.2512,1.9304 v -2.1336 h 4.1656 v 20.0152 q 0,1.9304 0.9144,2.54 0.9652,0.5588 2.0828,0.5588 l -0.9652,3.556 q -4.8768,0 -5.8928,-3.9624 -0.6096,0.8128 -1.4224,1.6256 -0.762,0.762 -1.778,1.3716 -1.016,0.6096 -2.286,0.9652 -1.27,0.3556 -2.794,0.3556 -2.4892,0 -4.6736,-0.9652 -2.133599,-0.9652 -3.759199,-2.7432 -1.5748,-1.778 -2.54,-4.2672 -0.9144,-2.54 -0.9144,-5.6896 z m 12.903199,9.6012 q 1.9304,0 3.6576,-0.9144 1.7272,-0.9144 2.8956,-2.3876 v -14.1732 q -1.3716,-0.9652 -3.048,-1.524 -1.6256,-0.6096 -3.4544,-0.6096 -1.8288,0 -3.3528,0.7112 -1.524,0.7112 -2.6416,2.032 -1.066799,1.27 -1.676399,3.0988 -0.6096,1.8288 -0.6096,4.0132 0,2.1336 0.6096,3.9624 0.6096,1.778 1.727199,3.0988 1.1176,1.27 2.5908,1.9812 1.524,0.7112 3.302,0.7112 z"
         style="font-style:normal;font-variant:normal;font-weight:normal;font-stretch:normal;font-size:50.79999924px;font-family:ABeeZee;-inkscape-font-specification:ABeeZee;fill:#333333;stroke-width:0.26458332"
         id="path3746"
         inkscape:connector-curvature="0" />
      <path
         d="m 59.929353,274.24765 q 1.4224,-2.1336 3.556,-3.556 2.1844,-1.4732 5.0292,-1.4732 3.1496,0 5.1308,1.524 1.9812,1.4732 2.8448,4.064 1.5748,-2.3368 3.7084,-3.9624 2.1844,-1.6256 5.3848,-1.6256 2.1336,0 3.7084,0.7112 1.6256,0.7112 2.692399,2.032 1.0668,1.27 1.5748,3.0988 0.5588,1.778 0.5588,3.9624 v 17.2212 h -4.571999 v -16.8656 q 0,-2.7432 -1.27,-4.4196 -1.27,-1.7272 -3.5052,-1.7272 -1.1684,0 -2.2352,0.4572 -1.0668,0.4572 -2.032,1.27 -0.9652,0.762 -1.8288,1.8288 -0.8636,1.016 -1.5748,2.1336 v 17.3228 h -4.572 v -16.8656 q 0,-2.7432 -1.27,-4.4196 -1.27,-1.7272 -3.5052,-1.7272 -1.1176,0 -2.1844,0.4572 -1.0668,0.4064 -2.0828,1.1684 -0.9652,0.762 -1.8288,1.778 -0.8636,1.016 -1.5748,2.1336 v 17.4752 h -4.572 v -26.416 h 4.4196 z"
         style="font-style:normal;font-variant:normal;font-weight:normal;font-stretch:normal;font-size:50.79999924px;font-family:ABeeZee;-inkscape-font-specification:ABeeZee;fill:#333333;stroke-width:0.26458332"
         id="path3748"
         inkscape:connector-curvature="0" />
      <path
         d="m 106.5637,296.24405 h -4.572 v -26.416 h 4.572 z m -2.286,-30.9372 q -1.3208,0 -2.286,-0.9144 -0.9144,-0.9652 -0.9144,-2.286 0,-1.4732 0.8636,-2.3368 0.8636,-0.8636 2.3368,-0.8636 1.3208,0 2.2352,0.9652 0.9652,0.9144 0.9652,2.2352 0,1.4732 -0.8636,2.3368 -0.8636,0.8636 -2.3368,0.8636 z"
         style="font-style:normal;font-variant:normal;font-weight:normal;font-stretch:normal;font-size:50.79999924px;font-family:ABeeZee;-inkscape-font-specification:ABeeZee;fill:#333333;stroke-width:0.26458332"
         id="path3750"
         inkscape:connector-curvature="0" />
      <path
         d="m 146.848,269.57405 4.064,1.4732 -8.382,25.1968 h -5.0292 l -6.096,-19.6596 -6.1468,19.6596 h -5.0292 l -8.3312,-25.1968 4.2164,-1.4732 6.8072,21.4884 6.1976,-19.3548 h 4.9276 l 6.0452,19.3548 z"
         style="font-style:normal;font-variant:normal;font-weight:normal;font-stretch:normal;font-size:50.79999924px;font-family:ABeeZee;-inkscape-font-specification:ABeeZee;fill:#333333;stroke-width:0.26458332"
         id="path3752"
         inkscape:connector-curvature="0" />
      <path
         d="m 160.81795,296.24405 h -4.572 v -26.416 h 4.572 z m -2.286,-30.9372 q -1.3208,0 -2.286,-0.9144 -0.9144,-0.9652 -0.9144,-2.286 0,-1.4732 0.8636,-2.3368 0.8636,-0.8636 2.3368,-0.8636 1.3208,0 2.2352,0.9652 0.9652,0.9144 0.9652,2.2352 0,1.4732 -0.8636,2.3368 -0.8636,0.8636 -2.3368,0.8636 z"
         style="font-style:normal;font-variant:normal;font-weight:normal;font-stretch:normal;font-size:50.79999924px;font-family:ABeeZee;-inkscape-font-specification:ABeeZee;fill:#333333;stroke-width:0.26458332"
         id="path3754"
         inkscape:connector-curvature="0" />
      <path
         d="m 168.94586,258.65205 h 4.572 v 21.4884 l 11.938,-10.8204 2.6416,2.8956 -10.2108,9.0424 12.446,12.446 -3.1496,3.048 -13.6652,-14.0716 v 13.5636 h -4.572 z"
         style="font-style:normal;font-variant:normal;font-weight:normal;font-stretch:normal;font-size:50.79999924px;font-family:ABeeZee;-inkscape-font-specification:ABeeZee;fill:#333333;stroke-width:0.26458332"
         id="path3756"
         inkscape:connector-curvature="0" />
      <path
         d="m 199.47663,296.24405 h -4.572 v -26.416 h 4.572 z m -2.286,-30.9372 q -1.3208,0 -2.286,-0.9144 -0.9144,-0.9652 -0.9144,-2.286 0,-1.4732 0.8636,-2.3368 0.8636,-0.8636 2.3368,-0.8636 1.3208,0 2.2352,0.9652 0.9652,0.9144 0.9652,2.2352 0,1.4732 -0.8636,2.3368 -0.8636,0.8636 -2.3368,0.8636 z"
         style="font-style:normal;font-variant:normal;font-weight:normal;font-stretch:normal;font-size:50.79999924px;font-family:ABeeZee;-inkscape-font-specification:ABeeZee;fill:#333333;stroke-width:0.26458332"
         id="path3758"
         inkscape:connector-curvature="0" />
    </g>
    <g
       aria-label="Classic"
       style="font-style:normal;font-weight:normal;font-size:10.58333302px;line-height:1.25;font-family:sans-serif;letter-spacing:0px;word-spacing:0px;display:inline;fill:#000000;fill-opacity:1;stroke:none;stroke-width:0.26458332"
       id="text4114">
      <path
         d="m 4.9524055,278.45695 q 0,3.2004 0.8128,5.842 0.8635999,2.5908 2.3367999,4.4704 1.524,1.8796 3.6067996,2.8956 2.0828,1.016 4.572,1.016 2.4892,0 4.318,-0.5588 1.8288,-0.6096 3.556,-1.6256 l 1.4732,4.0132 q -1.8796,1.016 -4.318,1.7272 -2.3876,0.6604 -5.588,0.6604 -3.5052,0 -6.4007996,-1.27 -2.8448,-1.27 -4.9275999,-3.6068 -2.0828,-2.3876 -3.2512,-5.7404 -1.11759995,-3.4036 -1.11759995,-7.62 0,-4.064 1.11759995,-7.4676 1.1684,-3.4036 3.302,-5.842 2.1335999,-2.4892 5.1307999,-3.8608 3.0479996,-1.3716 6.7563996,-1.3716 2.5908,0 4.6228,0.508 2.0828,0.4572 3.9116,1.3208 l -1.4732,4.064 q -1.5748,-0.762 -3.2512,-1.2192 -1.6256,-0.4572 -3.8608,-0.4572 -2.4384,0 -4.5212,0.9652 -2.0827996,0.9144 -3.6067996,2.7432 -1.524,1.8288 -2.3875999,4.4704 -0.8128,2.5908 -0.8128,5.9436 z"
         style="font-style:normal;font-variant:normal;font-weight:normal;font-stretch:normal;font-size:50.79999924px;font-family:ABeeZee;-inkscape-font-specification:ABeeZee;fill:#333333;stroke-width:0.26458332"
         id="path98" />
      <path
         d="m 35.025976,287.55015 q 0,2.7432 1.1176,4.064 1.1684,1.3208 3.2004,1.3208 0.9652,0 1.8796,-0.2032 0.9144,-0.254 1.625599,-0.5588 l 1.1176,3.7084 q -0.9144,0.4064 -2.285999,0.7112 -1.3208,0.3048 -2.9464,0.3048 -1.778,0 -3.302,-0.508 -1.4732,-0.508 -2.5908,-1.5748 -1.1176,-1.0668 -1.778,-2.7432 -0.6096,-1.6764 -0.6096,-4.064 v -29.3116 h 4.572 z"
         style="font-style:normal;font-variant:normal;font-weight:normal;font-stretch:normal;font-size:50.79999924px;font-family:ABeeZee;-inkscape-font-specification:ABeeZee;fill:#333333;stroke-width:0.26458332"
         id="path100" />
      <path
         d="m 45.744644,283.23215 q 0,-2.9464 0.9144,-5.4864 0.9144,-2.5908 2.54,-4.4704 1.6764,-1.8796 3.9624,-2.9464 2.3368,-1.0668 5.08,-1.0668 2.286,0 4.1148,0.8128 1.8796,0.762 3.2512,1.9304 v -2.1336 h 4.1656 v 20.0152 q 0,1.9304 0.9144,2.54 0.9652,0.5588 2.0828,0.5588 l -0.9652,3.556 q -4.8768,0 -5.8928,-3.9624 -0.6096,0.8128 -1.4224,1.6256 -0.762,0.762 -1.778,1.3716 -1.016,0.6096 -2.286,0.9652 -1.27,0.3556 -2.794,0.3556 -2.4892,0 -4.6736,-0.9652 -2.1336,-0.9652 -3.7592,-2.7432 -1.5748,-1.778 -2.54,-4.2672 -0.9144,-2.54 -0.9144,-5.6896 z m 12.9032,9.6012 q 1.9304,0 3.6576,-0.9144 1.7272,-0.9144 2.8956,-2.3876 v -14.1732 q -1.3716,-0.9652 -3.048,-1.524 -1.6256,-0.6096 -3.4544,-0.6096 -1.8288,0 -3.3528,0.7112 -1.524,0.7112 -2.6416,2.032 -1.0668,1.27 -1.6764,3.0988 -0.6096,1.8288 -0.6096,4.0132 0,2.1336 0.6096,3.9624 0.6096,1.778 1.7272,3.0988 1.1176,1.27 2.5908,1.9812 1.524,0.7112 3.302,0.7112 z"
         style="font-style:normal;font-variant:normal;font-weight:normal;font-stretch:normal;font-size:50.79999924px;font-family:ABeeZee;-inkscape-font-specification:ABeeZee;fill:#333333;stroke-width:0.26458332"
         id="path102" />
      <path
         d="m 78.510581,290.34415 q 1.3208,1.1684 3.302,1.8796 2.032,0.7112 4.318,0.7112 2.8448,0 4.2672,-0.9144 1.4732,-0.9652 1.4732,-2.4384 0,-0.762 -0.3048,-1.4224 -0.254,-0.6604 -1.016,-1.27 -0.7112,-0.6096 -1.9812,-1.1684 -1.27,-0.6096 -3.302,-1.3208 -3.7592,-1.27 -5.588,-2.9972 -1.8288,-1.778 -1.8288,-4.8768 0,-1.524 0.6604,-2.8448 0.7112,-1.3208 1.9812,-2.286 1.3208,-1.016 3.1496,-1.5748 1.8796,-0.5588 4.2672,-0.5588 2.5908,0 4.5212,0.5588 1.981199,0.508 3.555999,1.3208 l -1.27,3.7592 q -1.3716,-0.8128 -3.149599,-1.3208 -1.7272,-0.508 -3.8608,-0.508 -2.6416,0 -4.0132,1.0668 -1.3716,1.0668 -1.3716,2.3368 0,0.6096 0.2032,1.1176 0.254,0.508 0.8636,0.9652 0.6096,0.4572 1.6256,0.9144 1.016,0.4572 2.54,0.9652 2.4892,0.8636 4.2164,1.778 1.727199,0.8636 2.793999,1.9304 1.0668,1.0668 1.524,2.3368 0.4572,1.2192 0.4572,2.7432 0,1.778 -0.762,3.2004 -0.762,1.4224 -2.1336,2.4384 -1.371599,0.9652 -3.352799,1.4732 -1.9304,0.5588 -4.318,0.5588 -3.048,0 -5.4356,-0.762 -2.3876,-0.762 -3.9624,-1.9812 z"
         style="font-style:normal;font-variant:normal;font-weight:normal;font-stretch:normal;font-size:50.79999924px;font-family:ABeeZee;-inkscape-font-specification:ABeeZee;fill:#333333;stroke-width:0.26458332"
         id="path104" />
      <path
         d="m 102.2849,290.34415 q 1.3208,1.1684 3.302,1.8796 2.032,0.7112 4.318,0.7112 2.8448,0 4.2672,-0.9144 1.4732,-0.9652 1.4732,-2.4384 0,-0.762 -0.3048,-1.4224 -0.254,-0.6604 -1.016,-1.27 -0.7112,-0.6096 -1.9812,-1.1684 -1.27,-0.6096 -3.302,-1.3208 -3.7592,-1.27 -5.588,-2.9972 -1.8288,-1.778 -1.8288,-4.8768 0,-1.524 0.6604,-2.8448 0.7112,-1.3208 1.9812,-2.286 1.3208,-1.016 3.1496,-1.5748 1.8796,-0.5588 4.2672,-0.5588 2.5908,0 4.5212,0.5588 1.9812,0.508 3.556,1.3208 l -1.27,3.7592 q -1.3716,-0.8128 -3.1496,-1.3208 -1.7272,-0.508 -3.8608,-0.508 -2.6416,0 -4.0132,1.0668 -1.3716,1.0668 -1.3716,2.3368 0,0.6096 0.2032,1.1176 0.254,0.508 0.8636,0.9652 0.6096,0.4572 1.6256,0.9144 1.016,0.4572 2.54,0.9652 2.4892,0.8636 4.2164,1.778 1.7272,0.8636 2.794,1.9304 1.0668,1.0668 1.524,2.3368 0.4572,1.2192 0.4572,2.7432 0,1.778 -0.762,3.2004 -0.762,1.4224 -2.1336,2.4384 -1.3716,0.9652 -3.3528,1.4732 -1.9304,0.5588 -4.318,0.5588 -3.048,0 -5.4356,-0.762 -2.3876,-0.762 -3.9624,-1.9812 z"
         style="font-style:normal;font-variant:normal;font-weight:normal;font-stretch:normal;font-size:50.79999924px;font-family:ABeeZee;-inkscape-font-specification:ABeeZee;fill:#333333;stroke-width:0.26458332"
         id="path106" />
      <path
         d="m 130.98683,296.28775 h -4.572 v -26.416 h 4.572 z m -2.286,-30.9372 q -1.3208,0 -2.286,-0.9144 -0.9144,-0.9652 -0.9144,-2.286 0,-1.4732 0.8636,-2.3368 0.8636,-0.8636 2.3368,-0.8636 1.3208,0 2.2352,0.9652 0.9652,0.9144 0.9652,2.2352 0,1.4732 -0.8636,2.3368 -0.8636,0.8636 -2.3368,0.8636 z"
         style="font-style:normal;font-variant:normal;font-weight:normal;font-stretch:normal;font-size:50.79999924px;font-family:ABeeZee;-inkscape-font-specification:ABeeZee;fill:#333333;stroke-width:0.26458332"
         id="path108" />
      <path
         d="m 155.98032,274.69775 q -1.4732,-0.7112 -2.7432,-1.016 -1.27,-0.3556 -2.8448,-0.3556 -1.778,0 -3.3528,0.6604 -1.524,0.6604 -2.6416,1.9304 -1.1176,1.2192 -1.778,2.9972 -0.6096,1.778 -0.6096,4.064 0,2.0828 0.5588,3.8608 0.6096,1.778 1.6764,3.1496 1.0668,1.3208 2.54,2.0828 1.4732,0.762 3.302,0.762 1.9304,0 3.302,-0.4064 1.3716,-0.4064 2.9464,-1.27 l 1.4224,3.8608 q -1.6256,0.8636 -3.556,1.3716 -1.9304,0.508 -4.4196,0.508 -2.8448,0 -5.1308,-1.016 -2.286,-1.016 -3.9116,-2.8448 -1.6256,-1.8288 -2.54,-4.3688 -0.8636,-2.54 -0.8636,-5.588 0,-2.8448 0.8636,-5.334 0.9144,-2.54 2.5908,-4.4196 1.6764,-1.8796 4.0132,-2.9464 2.3876,-1.1176 5.334,-1.1176 2.286,0 3.9624,0.4064 1.6764,0.4064 3.2512,1.1684 z"
         style="font-style:normal;font-variant:normal;font-weight:normal;font-stretch:normal;font-size:50.79999924px;font-family:ABeeZee;-inkscape-font-specification:ABeeZee;fill:#333333;stroke-width:0.26458332"
         id="path110" />
    </g>
  </g>
</svg>
